<svg version="1.1" viewBox="0.0 0.0 602.5984251968504 546.511811023622" fill="none" stroke="none" stroke-linecap="square" stroke-miterlimit="10" xmlns:xlink="http://www.w3.org/1999/xlink" xmlns="http://www.w3.org/2000/svg"><clipPath id="p.0"><path d="m0 0l602.59845 0l0 546.51184l-602.59845 0l0 -546.51184z" clip-rule="nonzero"/></clipPath><g clip-path="url(#p.0)"><path fill="#000000" fill-opacity="0.0" d="m0 0l602.59845 0l0 546.51184l-602.59845 0z" fill-rule="evenodd"/><path fill="#000000" fill-opacity="0.0" d="m85.20473 289.25592l0 0c0 -120.65901 97.813446 -218.47246 218.47243 -218.47246l0 0c57.942505 0 113.51181 23.01757 154.48337 63.989105c40.971527 40.971527 63.989075 96.54085 63.989075 154.48335l0 0c0 120.659 -97.813446 218.47241 -218.47244 218.47241l0 0c-120.65898 0 -218.47243 -97.813416 -218.47243 -218.47241z" fill-rule="evenodd"/><path stroke="#d9d9d9" stroke-width="24.0" stroke-linejoin="round" stroke-linecap="butt" d="m85.20473 289.25592l0 0c0 -120.65901 97.813446 -218.47246 218.47243 -218.47246l0 0c57.942505 0 113.51181 23.01757 154.48337 63.989105c40.971527 40.971527 63.989075 96.54085 63.989075 154.48335l0 0c0 120.659 -97.813446 218.47241 -218.47244 218.47241l0 0c-120.65898 0 -218.47243 -97.813416 -218.47243 -218.47241z" fill-rule="evenodd"/><path fill="#000000" fill-opacity="0.0" d="m82.826775 273.25592l0 0c0 -120.65901 97.81344 -218.47246 218.47244 -218.47246l0 0c57.942474 0 113.51181 23.017567 154.48334 63.989094c40.971527 40.971535 63.989105 96.540855 63.989105 154.48337l0 0c0 120.659 -97.813446 218.47241 -218.47244 218.47241l0 0c-120.65901 0 -218.47244 -97.813416 -218.47244 -218.47241z" fill-rule="evenodd"/><path stroke="#ffffff" stroke-width="24.0" stroke-linejoin="round" stroke-linecap="butt" d="m82.826775 273.25592l0 0c0 -120.65901 97.81344 -218.47246 218.47244 -218.47246l0 0c57.942474 0 113.51181 23.017567 154.48334 63.989094c40.971527 40.971535 63.989105 96.540855 63.989105 154.48337l0 0c0 120.659 -97.813446 218.47241 -218.47244 218.47241l0 0c-120.65901 0 -218.47244 -97.813416 -218.47244 -218.47241z" fill-rule="evenodd"/></g></svg>